<mxfile host="65bd71144e">
    <diagram id="b-blfYIkdgPZX9wCAae5" name="Page-1">
        <mxGraphModel dx="704" dy="375" grid="1" gridSize="10" guides="1" tooltips="1" connect="1" arrows="1" fold="1" page="0" pageScale="1" pageWidth="827" pageHeight="1169" background="#ffffff" math="0" shadow="0">
            <root>
                <mxCell id="0"/>
                <mxCell id="1" parent="0"/>
                <mxCell id="3" value="" style="rounded=0;whiteSpace=wrap;html=1;fillColor=none;strokeColor=#000000;" vertex="1" parent="1">
                    <mxGeometry x="120" y="140" width="610" height="310" as="geometry"/>
                </mxCell>
                <mxCell id="6" value="対戦結果" style="html=1;fillColor=#F3EFFA;fontColor=#000000;strokeColor=#000000;" vertex="1" parent="3">
                    <mxGeometry x="150.00146976090014" y="176.1409090909091" width="84.93670886075948" height="35.22727272727273" as="geometry"/>
                </mxCell>
                <mxCell id="5" value="対戦(開始)" style="html=1;fillColor=#F3EFFA;fontColor=#000000;strokeColor=#000000;" vertex="1" parent="3">
                    <mxGeometry x="150.00146976090014" y="30" width="84.93670886075948" height="35.22727272727273" as="geometry"/>
                </mxCell>
                <mxCell id="7" value="ターン" style="html=1;fillColor=#F3EFFA;fontColor=#000000;strokeColor=#000000;" vertex="1" parent="3">
                    <mxGeometry x="300.0040553211439" y="30" width="84.93670886075948" height="35.22727272727273" as="geometry"/>
                </mxCell>
                <mxCell id="8" value="盤面" style="html=1;fillColor=#F3EFFA;fontColor=#000000;strokeColor=#000000;" vertex="1" parent="3">
                    <mxGeometry x="300.00362634786677" y="119.99909090909091" width="84.93670886075948" height="35.22727272727273" as="geometry"/>
                </mxCell>
                <mxCell id="75" style="edgeStyle=none;html=1;strokeColor=#000000;fontColor=#000000;endArrow=none;endFill=0;jumpStyle=line;jumpSize=2;" edge="1" parent="3" source="9" target="71">
                    <mxGeometry relative="1" as="geometry"/>
                </mxCell>
                <mxCell id="9" value="石" style="html=1;fillColor=#F3EFFA;fontColor=#000000;strokeColor=#000000;" vertex="1" parent="3">
                    <mxGeometry x="480" y="220" width="84.94" height="35.22" as="geometry"/>
                </mxCell>
                <mxCell id="4" value="プレイヤー" style="html=1;fillColor=#F3EFFA;fontColor=#000000;strokeColor=#000000;" vertex="1" parent="3">
                    <mxGeometry x="22.590447726207223" y="30" width="84.93670886075948" height="35.22727272727273" as="geometry"/>
                </mxCell>
                <mxCell id="36" value="" style="endArrow=none;html=1;edgeStyle=orthogonalEdgeStyle;strokeColor=#000000;fontColor=#000000;exitX=1;exitY=0.5;exitDx=0;exitDy=0;" edge="1" parent="3" source="4" target="5">
                    <mxGeometry relative="1" as="geometry">
                        <mxPoint x="77.21518987341773" y="70.45454545454545" as="sourcePoint"/>
                        <mxPoint x="200.75949367088606" y="70.45454545454545" as="targetPoint"/>
                    </mxGeometry>
                </mxCell>
                <mxCell id="37" value="1" style="edgeLabel;resizable=0;html=1;align=left;verticalAlign=bottom;labelBackgroundColor=none;labelBorderColor=none;strokeColor=#000000;fontColor=#000000;fillColor=#F3EFFA;" connectable="0" vertex="1" parent="36">
                    <mxGeometry x="-1" relative="1" as="geometry"/>
                </mxCell>
                <mxCell id="38" value="*" style="edgeLabel;resizable=0;html=1;align=right;verticalAlign=bottom;labelBackgroundColor=none;labelBorderColor=none;strokeColor=#000000;fontColor=#000000;fillColor=#F3EFFA;" connectable="0" vertex="1" parent="36">
                    <mxGeometry x="1" relative="1" as="geometry"/>
                </mxCell>
                <mxCell id="39" value="" style="endArrow=none;html=1;edgeStyle=orthogonalEdgeStyle;strokeColor=#000000;fontColor=#000000;exitX=0.5;exitY=0;exitDx=0;exitDy=0;" edge="1" parent="3" source="6" target="5">
                    <mxGeometry relative="1" as="geometry">
                        <mxPoint x="118.9113924050633" y="123.29545454545453" as="sourcePoint"/>
                        <mxPoint x="180.68354430379748" y="123.29545454545453" as="targetPoint"/>
                        <Array as="points"/>
                    </mxGeometry>
                </mxCell>
                <mxCell id="40" value="0..1" style="edgeLabel;resizable=0;html=1;align=left;verticalAlign=bottom;labelBackgroundColor=none;labelBorderColor=none;strokeColor=#000000;fontColor=#000000;fillColor=#F3EFFA;" connectable="0" vertex="1" parent="39">
                    <mxGeometry x="-1" relative="1" as="geometry"/>
                </mxCell>
                <mxCell id="41" value="1" style="edgeLabel;resizable=0;html=1;align=right;verticalAlign=bottom;labelBackgroundColor=none;labelBorderColor=none;strokeColor=#000000;fontColor=#000000;fillColor=#F3EFFA;" connectable="0" vertex="1" parent="39">
                    <mxGeometry x="1" relative="1" as="geometry"/>
                </mxCell>
                <mxCell id="46" value="" style="endArrow=none;html=1;edgeStyle=orthogonalEdgeStyle;strokeColor=#000000;fontColor=#000000;entryX=0;entryY=0.5;entryDx=0;entryDy=0;exitX=1;exitY=0.5;exitDx=0;exitDy=0;" edge="1" parent="3" source="5" target="7">
                    <mxGeometry relative="1" as="geometry">
                        <mxPoint x="257.8987341772152" y="94.91636363636363" as="sourcePoint"/>
                        <mxPoint x="381.44303797468353" y="94.91636363636363" as="targetPoint"/>
                    </mxGeometry>
                </mxCell>
                <mxCell id="47" value="1" style="edgeLabel;resizable=0;html=1;align=left;verticalAlign=bottom;labelBackgroundColor=none;labelBorderColor=none;strokeColor=#000000;fontColor=#000000;fillColor=#F3EFFA;" connectable="0" vertex="1" parent="46">
                    <mxGeometry x="-1" relative="1" as="geometry"/>
                </mxCell>
                <mxCell id="48" value="*" style="edgeLabel;resizable=0;html=1;align=right;verticalAlign=bottom;labelBackgroundColor=none;labelBorderColor=none;strokeColor=#000000;fontColor=#000000;fillColor=#F3EFFA;" connectable="0" vertex="1" parent="46">
                    <mxGeometry x="1" relative="1" as="geometry"/>
                </mxCell>
                <mxCell id="49" value="マス目" style="html=1;fillColor=#F3EFFA;fontColor=#000000;strokeColor=#000000;" vertex="1" parent="3">
                    <mxGeometry x="300.00362634786677" y="211.36909090909091" width="84.93670886075948" height="35.22727272727273" as="geometry"/>
                </mxCell>
                <mxCell id="50" value="" style="endArrow=none;html=1;edgeStyle=orthogonalEdgeStyle;strokeColor=#000000;fontColor=#000000;exitX=0.5;exitY=1;exitDx=0;exitDy=0;entryX=0.5;entryY=0;entryDx=0;entryDy=0;" edge="1" parent="3" source="7" target="8">
                    <mxGeometry relative="1" as="geometry">
                        <mxPoint x="237.2222222222222" y="130" as="sourcePoint"/>
                        <mxPoint x="417.96296296296293" y="130" as="targetPoint"/>
                    </mxGeometry>
                </mxCell>
                <mxCell id="51" value="1" style="edgeLabel;resizable=0;html=1;align=left;verticalAlign=bottom;labelBackgroundColor=none;labelBorderColor=none;strokeColor=#000000;fontColor=#000000;fillColor=#F3EFFA;" connectable="0" vertex="1" parent="50">
                    <mxGeometry x="-1" relative="1" as="geometry"/>
                </mxCell>
                <mxCell id="52" value="1" style="edgeLabel;resizable=0;html=1;align=right;verticalAlign=bottom;labelBackgroundColor=none;labelBorderColor=none;strokeColor=#000000;fontColor=#000000;fillColor=#F3EFFA;" connectable="0" vertex="1" parent="50">
                    <mxGeometry x="1" relative="1" as="geometry"/>
                </mxCell>
                <mxCell id="60" value="" style="endArrow=none;html=1;edgeStyle=orthogonalEdgeStyle;strokeColor=#000000;fontColor=#000000;exitX=0.5;exitY=1;exitDx=0;exitDy=0;" edge="1" parent="3" source="8" target="49">
                    <mxGeometry relative="1" as="geometry">
                        <mxPoint x="237.2222222222222" y="170" as="sourcePoint"/>
                        <mxPoint x="417.96296296296293" y="170" as="targetPoint"/>
                    </mxGeometry>
                </mxCell>
                <mxCell id="61" value="1" style="edgeLabel;resizable=0;html=1;align=left;verticalAlign=bottom;labelBackgroundColor=none;labelBorderColor=none;strokeColor=#000000;fontColor=#000000;fillColor=#F3EFFA;" connectable="0" vertex="1" parent="60">
                    <mxGeometry x="-1" relative="1" as="geometry"/>
                </mxCell>
                <mxCell id="62" value="*" style="edgeLabel;resizable=0;html=1;align=right;verticalAlign=bottom;labelBackgroundColor=none;labelBorderColor=none;strokeColor=#000000;fontColor=#000000;fillColor=#F3EFFA;" connectable="0" vertex="1" parent="60">
                    <mxGeometry x="1" relative="1" as="geometry"/>
                </mxCell>
                <mxCell id="63" value="ターン" style="html=1;fillColor=#F3EFFA;fontColor=#000000;strokeColor=#000000;" vertex="1" parent="3">
                    <mxGeometry x="460.0040553211438" y="30" width="84.93670886075948" height="35.22727272727273" as="geometry"/>
                </mxCell>
                <mxCell id="67" value="" style="endArrow=none;html=1;edgeStyle=orthogonalEdgeStyle;strokeColor=#000000;fontColor=#000000;exitX=1;exitY=0.5;exitDx=0;exitDy=0;entryX=0;entryY=0.5;entryDx=0;entryDy=0;" edge="1" parent="3" source="7" target="63">
                    <mxGeometry relative="1" as="geometry">
                        <mxPoint x="230" y="130" as="sourcePoint"/>
                        <mxPoint x="390" y="130" as="targetPoint"/>
                    </mxGeometry>
                </mxCell>
                <mxCell id="68" value="1" style="edgeLabel;resizable=0;html=1;align=left;verticalAlign=bottom;labelBackgroundColor=none;labelBorderColor=none;strokeColor=#000000;fontColor=#000000;fillColor=#F3EFFA;" connectable="0" vertex="1" parent="67">
                    <mxGeometry x="-1" relative="1" as="geometry"/>
                </mxCell>
                <mxCell id="69" value="1" style="edgeLabel;resizable=0;html=1;align=right;verticalAlign=bottom;labelBackgroundColor=none;labelBorderColor=none;strokeColor=#000000;fontColor=#000000;fillColor=#F3EFFA;" connectable="0" vertex="1" parent="67">
                    <mxGeometry x="1" relative="1" as="geometry"/>
                </mxCell>
                <mxCell id="71" value="&lt;span style=&quot;background-color: initial;&quot;&gt;石の種類&lt;br&gt;&lt;ul&gt;&lt;li&gt;空&lt;/li&gt;&lt;li&gt;黒&lt;/li&gt;&lt;li&gt;白&lt;/li&gt;&lt;/ul&gt;&lt;/span&gt;" style="shape=note;size=20;whiteSpace=wrap;html=1;labelBackgroundColor=none;labelBorderColor=none;strokeColor=#000000;fontColor=#000000;fillColor=#F3EFFA;align=left;verticalAlign=top;" vertex="1" parent="3">
                    <mxGeometry x="510" y="87.61" width="90" height="100" as="geometry"/>
                </mxCell>
                <mxCell id="72" value="" style="endArrow=none;html=1;edgeStyle=orthogonalEdgeStyle;strokeColor=#000000;fontColor=#000000;exitX=1;exitY=0.5;exitDx=0;exitDy=0;entryX=0;entryY=0.5;entryDx=0;entryDy=0;" edge="1" parent="3" source="49" target="9">
                    <mxGeometry relative="1" as="geometry">
                        <mxPoint x="350" y="193.39999999999998" as="sourcePoint"/>
                        <mxPoint x="510" y="193.39999999999998" as="targetPoint"/>
                    </mxGeometry>
                </mxCell>
                <mxCell id="73" value="1" style="edgeLabel;resizable=0;html=1;align=left;verticalAlign=bottom;labelBackgroundColor=none;labelBorderColor=none;strokeColor=#000000;fontColor=#000000;fillColor=#F3EFFA;" connectable="0" vertex="1" parent="72">
                    <mxGeometry x="-1" relative="1" as="geometry"/>
                </mxCell>
                <mxCell id="74" value="1" style="edgeLabel;resizable=0;html=1;align=right;verticalAlign=bottom;labelBackgroundColor=none;labelBorderColor=none;strokeColor=#000000;fontColor=#000000;fillColor=#F3EFFA;" connectable="0" vertex="1" parent="72">
                    <mxGeometry x="1" relative="1" as="geometry"/>
                </mxCell>
                <mxCell id="17" value="Untitled Layer" parent="0"/>
                <mxCell id="26" value="Untitled Layer" parent="0"/>
            </root>
        </mxGraphModel>
    </diagram>
</mxfile>